<svg xmlns="http://www.w3.org/2000/svg" width="64" height="64" viewBox="0 0 64 64">
  <defs>
    <linearGradient id="g" x1="0" x2="1" y1="0" y2="1">
      <stop offset="0%" stop-color="#0ea5e9"/>
      <stop offset="100%" stop-color="#22d3ee"/>
    </linearGradient>
  </defs>
  <rect x="12" y="12" width="40" height="40" rx="8" fill="none" stroke="url(#g)" stroke-width="3"/>
  <rect x="22" y="22" width="20" height="20" rx="4" fill="none" stroke="#f59e0b" stroke-width="2"/>
  <path d="M22 32h-6m38 0h-6M32 22v-6M32 48v-6M24 12v6M40 12v6M24 46v6M40 46v6M12 24h6M46 24h6M12 40h6M46 40h6"
        stroke="#94a3b8" stroke-width="2" stroke-linecap="round"/>
  <path d="M26 30h6v-6m0 10v6h6"
        fill="none" stroke="#22d3ee" stroke-width="2" stroke-linecap="round" stroke-linejoin="round"/>
</svg>
